<svg width="720" height="540" viewBox="0 0 720 540" fill="none" xmlns="http://www.w3.org/2000/svg">
  <rect width="720" height="540" rx="40" fill="#FFF7EF"/>
  <ellipse cx="360" cy="458" rx="248" ry="36" fill="#E6CCB1"/>
  <rect x="194" y="312" width="332" height="110" rx="28" fill="#B45B2A"/>
  <rect x="224" y="236" width="272" height="98" rx="22" fill="#F4D19B"/>
  <path d="M224 285C246.667 297.667 269.333 304 292 304C314.667 304 337.333 297.667 360 285C382.667 272.333 405.333 266 428 266C450.667 266 473.333 272.333 496 285V313H224V285Z" fill="#FAE8CA"/>
  <path d="M237 235C237 197.997 266.997 168 304 168H416C453.003 168 483 197.997 483 235V245H237V235Z" fill="#C96F39"/>
  <path d="M272 167C272 138.834 294.834 116 323 116H397C425.166 116 448 138.834 448 167V178H272V167Z" fill="#F4D19B"/>
  <path d="M314 168C314 132.654 342.654 104 378 104C413.346 104 442 132.654 442 168V178H314V168Z" fill="#FFE3B6"/>
  <path d="M336 110C336 89.0132 353.013 72 374 72C394.987 72 412 89.0132 412 110V124H336V110Z" fill="#B45B2A"/>
  <rect x="356" y="42" width="10" height="38" rx="5" fill="#8F4A23"/>
  <path d="M361 28C370.889 28 379 36.111 379 46C379 55.889 370.889 64 361 64C351.111 64 343 55.889 343 46C343 36.111 351.111 28 361 28Z" fill="#F0B44A"/>
  <path d="M266 361C266 350.507 274.507 342 285 342H437C447.493 342 456 350.507 456 361V422H266V361Z" fill="#8F4A23"/>
  <circle cx="266" cy="129" r="16" fill="#E8BE63"/>
  <circle cx="484" cy="148" r="14" fill="#D77B42" fill-opacity="0.45"/>
</svg>
