<svg width="720" height="540" viewBox="0 0 720 540" fill="none" xmlns="http://www.w3.org/2000/svg">
  <rect width="720" height="540" rx="40" fill="#FBF4E8"/>
  <ellipse cx="356" cy="448" rx="250" ry="42" fill="#E3C39A"/>
  <path d="M221 313C221 214.142 301.142 134 400 134C482.193 134 551.429 189.36 573.028 264.777C538.653 244.42 500.687 232 460 232C332.423 232 229 335.423 229 463C229 474.952 229.906 486.692 231.653 498.161C225.026 499.379 218.226 500 211.28 500C147.502 500 95.8 448.298 95.8 384.52C95.8 331.35 131.823 286.594 180.743 274.469C206.319 268.129 221 289.743 221 313Z" fill="#C86D35"/>
  <path d="M275 309C275 233.337 336.337 172 412 172C484.376 172 543.641 228.241 548.405 299.411C522.461 282.955 491.712 273.435 458.74 273.435C366.282 273.435 291.326 348.391 291.326 440.849C291.326 454.378 292.931 467.531 295.962 480.133C292.159 480.701 288.264 481 284.3 481C236.087 481 197 441.913 197 393.7C197 349.527 229.808 313.021 272.369 307.324C273.229 307.209 274.112 307.104 275 309Z" fill="#E09A4C"/>
  <path d="M507 362C507 293.517 451.483 238 383 238C315.338 238 260.334 292.197 259.027 359.55C283.399 344.176 312.286 335.282 343.25 335.282C430.094 335.282 500.5 405.687 500.5 492.532C500.5 496.38 500.362 500.197 500.09 503.978C539.604 491.864 568 456.329 568 414.16C568 391.082 559.497 370.005 545.445 353.873C536.923 344.087 507 340.483 507 362Z" fill="#B75A28"/>
  <path d="M311 314C311 314 350.411 329.5 415 329.5C479.589 329.5 513 308 513 308" stroke="#8A401F" stroke-width="18" stroke-linecap="round"/>
  <path d="M299 380C299 380 342.188 395.5 406 395.5C469.812 395.5 501 374 501 374" stroke="#8A401F" stroke-width="16" stroke-linecap="round"/>
  <path d="M309 448C309 448 346.383 460 401.609 460C456.835 460 484 443.5 484 443.5" stroke="#8A401F" stroke-width="14" stroke-linecap="round"/>
  <circle cx="150" cy="116" r="20" fill="#F0C17B"/>
  <circle cx="610" cy="104" r="16" fill="#D77B42" fill-opacity="0.45"/>
</svg>
