<svg width="800" height="920" viewBox="0 0 800 920" fill="none" xmlns="http://www.w3.org/2000/svg">
  <rect width="800" height="920" rx="48" fill="#F4E0BF"/>
  <circle cx="170" cy="160" r="108" fill="#E3B467"/>
  <circle cx="635" cy="220" r="132" fill="#D77B42" fill-opacity="0.35"/>
  <path d="M110 742C110 618.84 209.84 519 333 519H461C584.16 519 684 618.84 684 742V764C684 789.405 663.405 810 638 810H156C130.595 810 110 789.405 110 764V742Z" fill="#8F4A23"/>
  <path d="M196 472C196 360.438 286.438 270 398 270C509.562 270 600 360.438 600 472V525H196V472Z" fill="#F0C17B"/>
  <path d="M240 447C240 359.755 310.755 289 398 289C485.245 289 556 359.755 556 447V525H240V447Z" fill="#F7D79B"/>
  <path d="M297 430C297 409.565 313.565 393 334 393H347C367.435 393 384 409.565 384 430V525H297V430Z" fill="#C76C32"/>
  <path d="M411 430C411 409.565 427.565 393 448 393H461C481.435 393 498 409.565 498 430V525H411V430Z" fill="#C76C32"/>
  <rect x="138" y="632" width="518" height="40" rx="20" fill="#F0C17B"/>
  <circle cx="206" cy="179" r="20" fill="#F9E4BB"/>
  <circle cx="617" cy="117" r="14" fill="#F9E4BB"/>
  <path d="M238 152C263.736 117.194 295.63 88 340.5 88C390 88 426 120 448.5 152C480.955 132.024 518.061 121.525 557 121.525C673.531 121.525 768 214.934 768 330.188C768 445.443 673.531 538.851 557 538.851H250C149.485 538.851 68 458.3 68 358.939C68 259.577 149.485 179.026 250 179.026C245.833 170.017 241.867 161.551 238 152Z" fill="#FAEFE0"/>
  <path d="M224 649C224 639.611 231.611 632 241 632H555C564.389 632 572 639.611 572 649V656C572 665.389 564.389 673 555 673H241C231.611 673 224 665.389 224 656V649Z" fill="#B55B28"/>
  <path d="M252 730C252 702.386 274.386 680 302 680H494C521.614 680 544 702.386 544 730V810H252V730Z" fill="#A15228"/>
</svg>
